<?xml version="1.0" encoding="utf-8"?>
<!-- Generator: Adobe Illustrator 22.0.0, SVG Export Plug-In . SVG Version: 6.00 Build 0)  -->
<svg version="1.1" id="Icon_Set" xmlns="http://www.w3.org/2000/svg" xmlns:xlink="http://www.w3.org/1999/xlink" x="0px" y="0px"
	 viewBox="0 0 64 64" style="enable-background:new 0 0 64 64;" xml:space="preserve">
<style type="text/css">
	.st0{fill:#40C4FF;}
	.st1{fill:#263238;}
	.st2{fill:#FFD740;}
	.st3{fill:#FF5252;}
	.st4{fill:#4DB6AC;}
	.st5{fill:#FFFFFF;}
	.st6{fill:#4FC3F7;}
	.st7{fill:#37474F;}
</style>
<g>
	<g>
		<path class="st1" d="M27,20.5c-4.687,0-8.5-3.813-8.5-8.5s3.813-8.5,8.5-8.5s8.5,3.813,8.5,8.5S31.687,20.5,27,20.5z M27,4.5
			c-4.136,0-7.5,3.364-7.5,7.5s3.364,7.5,7.5,7.5s7.5-3.364,7.5-7.5S31.136,4.5,27,4.5z"/>
	</g>
	<g>
		<path class="st2" d="M32.547,7.374l0.596-0.496C31.676,5.12,29.47,4,27,4c-4.418,0-8,3.582-8,8h0.755
			C24.429,12,28.955,10.363,32.547,7.374z"/>
		<path class="st1" d="M19.756,12.5H19c-0.276,0-0.5-0.224-0.5-0.5c0-4.687,3.813-8.5,8.5-8.5c2.525,0,4.905,1.114,6.527,3.058
			c0.085,0.102,0.126,0.233,0.114,0.365c-0.012,0.133-0.076,0.254-0.178,0.339l-0.596,0.496c0,0,0,0.001-0.001,0.001
			C29.192,10.816,24.536,12.5,19.756,12.5z M19.517,11.5h0.239c4.547,0,8.977-1.602,12.473-4.511l0.197-0.165
			C31.012,5.342,29.062,4.5,27,4.5C23.032,4.5,19.774,7.597,19.517,11.5z M32.548,7.374h0.01H32.548z"/>
	</g>
	<g>
		<path class="st1" d="M30,21.506c-0.276,0-0.5-0.224-0.5-0.5v-1.593c0-0.276,0.224-0.5,0.5-0.5s0.5,0.224,0.5,0.5v1.593
			C30.5,21.282,30.276,21.506,30,21.506z"/>
	</g>
	<g>
		<path class="st1" d="M24.001,21.505c-0.276,0-0.5-0.224-0.5-0.5L23.5,19.413c0-0.275,0.224-0.5,0.5-0.5l0,0
			c0.276,0,0.5,0.224,0.5,0.5l0.001,1.592C24.501,21.28,24.277,21.505,24.001,21.505L24.001,21.505z"/>
	</g>
	<g>
		<polygon class="st0" points="29.51,37.506 27.01,40.006 24.51,37.506 26,25.506 28,25.506 		"/>
		<path class="st1" d="M27.01,40.506c-0.128,0-0.256-0.049-0.354-0.146l-2.5-2.5c-0.109-0.109-0.162-0.262-0.143-0.415l1.49-12
			c0.031-0.25,0.244-0.438,0.496-0.438h2c0.252,0,0.465,0.188,0.496,0.438l1.51,12c0.02,0.153-0.033,0.307-0.143,0.416l-2.5,2.5
			C27.266,40.457,27.138,40.506,27.01,40.506z M25.036,37.325l1.974,1.974l1.974-1.974l-1.425-11.319h-1.117L25.036,37.325z"/>
	</g>
	<g>
		<path class="st1" d="M31,26.006h-8c-0.151,0-0.295-0.068-0.39-0.188c-0.096-0.118-0.131-0.272-0.099-0.421l1-4.5
			c0.044-0.195,0.199-0.347,0.396-0.383c0.198-0.034,0.397,0.048,0.508,0.214L27,24.604l2.584-3.876
			c0.111-0.166,0.313-0.254,0.508-0.214c0.197,0.036,0.353,0.188,0.396,0.383l1,4.5c0.032,0.148-0.003,0.303-0.099,0.421
			C31.295,25.938,31.151,26.006,31,26.006z M27.935,25.006h2.442l-0.611-2.748L27.935,25.006z M23.623,25.006h2.442l-1.831-2.748
			L23.623,25.006z"/>
	</g>
	<g>
		<path class="st1" d="M20,43.504h-5c-0.276,0-0.5-0.224-0.5-0.5V28.235c0-2.171,1.282-4.144,3.267-5.026l6.03-2.68
			c0.253-0.11,0.547,0,0.66,0.254c0.112,0.252-0.002,0.548-0.254,0.66l-6.03,2.68c-1.624,0.722-2.673,2.336-2.673,4.112v14.269h4
			V29.006c0-0.276,0.224-0.5,0.5-0.5s0.5,0.224,0.5,0.5v13.998C20.5,43.28,20.276,43.504,20,43.504z"/>
	</g>
	<g>
		<path class="st1" d="M17.5,48.01c-1.652,0-2.998-1.344-3-2.995l1-0.005c0.002,1.104,0.898,2,2,2c0.535,0,1.037-0.208,1.415-0.587
			c0.377-0.377,0.585-0.879,0.585-1.412V45.01v-0.004c0-0.276,0.224-0.5,0.5-0.5l0,0c0.275,0,0.5,0.224,0.5,0.499
			c0.001,0.803-0.311,1.558-0.877,2.125C19.056,47.697,18.302,48.01,17.5,48.01z"/>
	</g>
	<g>
		<path class="st1" d="M27,60.5c-0.276,0-0.5-0.224-0.5-0.5V48.004c0-0.276,0.224-0.5,0.5-0.5s0.5,0.224,0.5,0.5V60
			C27.5,60.276,27.276,60.5,27,60.5z"/>
	</g>
	<g>
		<path class="st1" d="M15,19.75H5c-0.276,0-0.5-0.224-0.5-0.5s0.224-0.5,0.5-0.5h10c0.276,0,0.5,0.224,0.5,0.5
			S15.276,19.75,15,19.75z"/>
	</g>
	<g>
		<path class="st1" d="M3,19.75H2c-0.276,0-0.5-0.224-0.5-0.5s0.224-0.5,0.5-0.5h1c0.276,0,0.5,0.224,0.5,0.5S3.276,19.75,3,19.75z"
			/>
	</g>
	<g>
		<path class="st1" d="M59,34.75H49c-0.276,0-0.5-0.224-0.5-0.5s0.224-0.5,0.5-0.5h10c0.276,0,0.5,0.224,0.5,0.5
			S59.276,34.75,59,34.75z"/>
	</g>
	<g>
		<path class="st1" d="M62,34.75h-1c-0.276,0-0.5-0.224-0.5-0.5s0.224-0.5,0.5-0.5h1c0.276,0,0.5,0.224,0.5,0.5
			S62.276,34.75,62,34.75z"/>
	</g>
	<g>
		
			<rect x="44.25" y="16.75" transform="matrix(6.123234e-17 -1 1 6.123234e-17 29.2499 67.25)" class="st2" width="8" height="4.5"/>
		<path class="st1" d="M50.5,23.5H46c-0.276,0-0.5-0.224-0.5-0.5v-8c0-0.276,0.224-0.5,0.5-0.5h4.5c0.276,0,0.5,0.224,0.5,0.5v8
			C51,23.276,50.776,23.5,50.5,23.5z M46.5,22.5H50v-7h-3.5V22.5z"/>
	</g>
	<g>
		<path class="st1" d="M50.5,19.5h-2.25c-0.276,0-0.5-0.224-0.5-0.5s0.224-0.5,0.5-0.5h2.25c0.276,0,0.5,0.224,0.5,0.5
			S50.776,19.5,50.5,19.5z"/>
	</g>
	<g>
		<path class="st2" d="M39,14v30.114C38.676,44.047,38.344,44,38,44c-2.761,0-5,2.239-5,5c0,2.628,2.035,4.759,4.611,4.961
			C37.541,54.296,37.5,54.643,37.5,55c0,2.761,2.239,5,5,5c2.761,0,5-2.239,5-5c0-0.357-0.04-0.704-0.111-1.039
			C49.965,53.759,52,51.628,52,49c0-2.761-2.239-5-5-5c-0.344,0-0.676,0.047-1,0.113V14H39z M46,47.5v3h-7v-3H46z"/>
		<path class="st1" d="M42.5,60.5c-3.032,0-5.5-2.468-5.5-5.5c0-0.2,0.012-0.403,0.035-0.609C34.453,53.929,32.5,51.657,32.5,49
			c0-3.032,2.468-5.5,5.5-5.5c0.162,0,0.327,0.009,0.5,0.027V14c0-0.276,0.224-0.5,0.5-0.5h7c0.276,0,0.5,0.224,0.5,0.5v29.527
			c0.173-0.019,0.338-0.027,0.5-0.027c3.032,0,5.5,2.468,5.5,5.5c0,2.657-1.952,4.928-4.535,5.391C47.988,54.595,48,54.799,48,55
			C48,58.032,45.532,60.5,42.5,60.5z M38,44.5c-2.481,0-4.5,2.019-4.5,4.5c0,2.319,1.823,4.28,4.15,4.463
			c0.144,0.011,0.274,0.083,0.361,0.198c0.086,0.115,0.118,0.262,0.089,0.402C38.034,54.383,38,54.698,38,55
			c0,2.481,2.019,4.5,4.5,4.5S47,57.481,47,55c0-0.307-0.034-0.621-0.101-0.936c-0.029-0.141,0.003-0.287,0.089-0.402
			c0.086-0.116,0.218-0.188,0.361-0.199C49.677,53.28,51.5,51.319,51.5,49c0-2.481-2.019-4.5-4.5-4.5
			c-0.271,0-0.557,0.033-0.899,0.104c-0.148,0.03-0.3-0.008-0.417-0.103c-0.116-0.096-0.184-0.237-0.184-0.388V14.5h-6v29.613
			c0,0.15-0.067,0.292-0.184,0.388c-0.116,0.095-0.268,0.134-0.417,0.103C38.557,44.533,38.271,44.5,38,44.5z M46,51h-7
			c-0.276,0-0.5-0.224-0.5-0.5v-3c0-0.276,0.224-0.5,0.5-0.5h7c0.276,0,0.5,0.224,0.5,0.5v3C46.5,50.776,46.276,51,46,51z M39.5,50
			h6v-2h-6V50z"/>
	</g>
	<g>
		<path class="st1" d="M37,24.751c-0.105,0-0.211-0.033-0.301-0.101c-0.304-0.229-0.589-0.401-0.872-0.527l-6.03-2.68
			c-0.252-0.112-0.366-0.408-0.254-0.66c0.113-0.254,0.407-0.364,0.66-0.254l6.03,2.68c0.354,0.157,0.703,0.368,1.067,0.643
			c0.221,0.167,0.265,0.48,0.099,0.7C37.301,24.683,37.151,24.751,37,24.751z"/>
	</g>
	<g>
		<path class="st1" d="M34,60.5c-0.276,0-0.5-0.224-0.5-0.5v-5.31c0-0.276,0.224-0.5,0.5-0.5s0.5,0.224,0.5,0.5V60
			C34.5,60.276,34.276,60.5,34,60.5z"/>
	</g>
	<g>
		<path class="st1" d="M20,60.5c-0.276,0-0.5-0.224-0.5-0.5V43.004c0-0.276,0.224-0.5,0.5-0.5h13.5V29.006
			c0-0.276,0.224-0.5,0.5-0.5s0.5,0.224,0.5,0.5v13.998c0,0.276-0.224,0.5-0.5,0.5H20.5V60C20.5,60.276,20.276,60.5,20,60.5z"/>
	</g>
	<g>
		<path class="st1" d="M58.5,15.5h-4c-0.276,0-0.5-0.224-0.5-0.5s0.224-0.5,0.5-0.5h4c0.276,0,0.5,0.224,0.5,0.5
			S58.776,15.5,58.5,15.5z"/>
	</g>
	<g>
		<path class="st1" d="M52.5,9.5h-4C48.224,9.5,48,9.276,48,9s0.224-0.5,0.5-0.5h4C52.776,8.5,53,8.724,53,9S52.776,9.5,52.5,9.5z"
			/>
	</g>
	<g>
		<path class="st1" d="M50.5,11.5c-0.276,0-0.5-0.224-0.5-0.5V7c0-0.276,0.224-0.5,0.5-0.5S51,6.724,51,7v4
			C51,11.276,50.776,11.5,50.5,11.5z"/>
	</g>
	<g>
		<path class="st1" d="M56.5,17.5c-0.276,0-0.5-0.224-0.5-0.5v-4c0-0.276,0.224-0.5,0.5-0.5S57,12.724,57,13v4
			C57,17.276,56.776,17.5,56.5,17.5z"/>
	</g>
</g>
</svg>
